# xmcd
#
# Track frame offsets:
#	150
#	17056
#	33173
#	46895
#	64849
#	87114
#	105851
#	119263
#	136492
#	159587
#
# Disc length: 2659 seconds
#
# Revision: 0
# Processed by: cddbd v1.5.1PL0 Copyright (c) Steve Scherf et al.
# Submitted via: audiograbber 1.83.01
#
DISCID=740a610a
DTITLE=Tritt, Travis - Trouble - Tritt, Travis - Trouble
DYEAR=1992
DGENRE=Country
TTITLE0=Looking Out For Number One
TTITLE1=Can I Trust You With My Heart
TTITLE2=t-r-o-u-b-l-e
TTITLE3=When I Touch You
TTITLE4=Lord Have Mercy On The Working Man
TTITLE5=I Wish I Could Go Back Home
TTITLE6=A Hundred Years From Now
TTITLE7=Blue Collar Man
TTITLE8=Worth Every Mile
TTITLE9=Leave My Girl Alone
EXTD=
EXTT0=
EXTT1=
EXTT2=
EXTT3=
EXTT4=
EXTT5=
EXTT6=
EXTT7=
EXTT8=
EXTT9=
PLAYORDER=
